<?xml version="1.0" standalone="no"?>
<!DOCTYPE svg PUBLIC "-//W3C//DTD SVG 20010904//EN"
 "http://www.w3.org/TR/2001/REC-SVG-20010904/DTD/svg10.dtd">
<svg version="1.0" xmlns="http://www.w3.org/2000/svg"
 width="880.000000pt" height="880.000000pt" viewBox="0 0 880.000000 880.000000"
 preserveAspectRatio="xMidYMid meet">
<metadata>
Created by potrace 1.11, written by Peter Selinger 2001-2013
</metadata>
<g transform="translate(0.000000,880.000000) scale(0.100000,-0.100000)"
fill="#000000" stroke="none">
<path d="M3730 7681 c0 -3 -15 -6 -33 -7 -27 0 -90 -7 -172 -19 -69 -9 -120
-19 -194 -36 -46 -11 -94 -20 -107 -21 -13 -1 -24 -5 -24 -8 0 -3 -9 -6 -20
-7 -28 -2 -283 -84 -295 -94 -5 -5 -15 -9 -23 -9 -7 0 -32 -8 -55 -19 -23 -10
-71 -31 -107 -47 -36 -15 -108 -50 -160 -77 -52 -27 -105 -55 -117 -61 -13 -6
-23 -14 -23 -18 0 -5 -6 -8 -13 -8 -13 0 -199 -116 -228 -143 -9 -8 -30 -23
-48 -33 -17 -10 -31 -22 -31 -26 0 -4 -6 -8 -14 -8 -8 0 -16 -3 -18 -8 -1 -4
-25 -25 -53 -47 -92 -73 -239 -208 -299 -274 -17 -18 -49 -52 -71 -75 -22 -22
-56 -61 -75 -86 -19 -25 -40 -49 -46 -55 -20 -19 -110 -140 -117 -157 -3 -10
-11 -18 -17 -18 -5 0 -10 -4 -10 -10 0 -8 -34 -63 -101 -161 -52 -77 -229
-434 -229 -463 0 -6 -4 -16 -9 -21 -8 -8 -94 -255 -107 -305 -2 -8 -10 -42
-19 -75 -17 -69 -56 -250 -59 -280 -7 -53 -19 -142 -23 -160 -27 -134 -20
-615 12 -819 4 -21 8 -48 9 -60 2 -11 6 -37 10 -56 3 -19 8 -46 11 -60 2 -14
7 -35 11 -47 5 -18 1 -25 -22 -35 -16 -7 -31 -15 -34 -18 -3 -3 -23 -14 -45
-25 -35 -17 -165 -90 -260 -145 -52 -30 -145 -90 -145 -94 0 -9 89 -33 96 -26
15 13 123 71 278 148 150 75 166 78 171 35 1 -10 5 -25 8 -33 2 -8 21 -67 41
-130 20 -63 41 -124 45 -135 5 -11 16 -36 25 -57 9 -20 16 -39 16 -43 0 -4 21
-50 46 -103 25 -53 50 -106 55 -117 9 -20 38 -72 94 -170 42 -74 166 -259 176
-263 5 -2 9 -8 9 -14 0 -23 249 -310 347 -401 18 -17 33 -34 33 -39 0 -4 -12
-19 -27 -32 -16 -14 -51 -46 -79 -73 -28 -26 -106 -100 -174 -163 -68 -63
-135 -126 -150 -140 -14 -14 -38 -34 -52 -46 -19 -15 -27 -32 -30 -67 -5 -52
-2 -62 16 -44 7 7 39 35 70 62 32 28 68 59 80 70 12 11 55 49 96 85 40 36 86
76 101 90 15 14 40 36 56 49 15 13 58 51 94 83 37 32 70 58 73 58 4 0 62 -45
130 -100 67 -55 127 -100 133 -100 6 0 13 -4 15 -9 4 -11 183 -126 283 -182
202 -113 449 -217 650 -275 95 -28 249 -66 280 -70 22 -3 47 -8 55 -11 15 -6
35 -9 105 -18 22 -2 56 -7 75 -10 19 -3 61 -7 92 -9 31 -2 60 -6 65 -9 11 -6
506 -1 563 7 25 3 63 7 85 10 52 6 108 14 171 27 28 5 64 12 80 15 57 10 226
54 245 64 10 6 19 9 19 6 0 -7 240 73 278 93 14 8 38 18 62 26 43 15 316 150
340 168 15 12 44 29 85 51 24 13 168 108 175 116 3 3 30 23 60 45 30 22 57 42
60 45 3 3 15 13 27 21 129 88 442 412 573 594 24 33 47 62 52 63 4 2 8 10 8
18 0 8 5 14 10 14 6 0 10 7 10 15 0 8 5 15 10 15 6 0 10 7 10 15 0 8 3 15 8
15 4 0 12 10 18 23 6 12 34 60 62 105 77 129 212 406 212 437 0 8 4 15 10 15
5 0 9 3 8 8 0 4 2 14 5 22 28 70 103 310 112 358 2 10 4 17 5 17 1 0 3 8 5 18
2 11 13 62 24 115 11 54 22 115 26 137 3 22 8 54 10 70 32 191 37 575 10 795
-26 216 -84 479 -143 650 -3 8 -6 17 -6 20 -2 7 -36 102 -46 125 -5 11 -16 41
-26 67 l-17 48 28 21 c81 64 406 385 505 498 30 35 60 69 65 75 6 6 28 34 50
61 22 28 45 55 51 60 21 19 134 174 134 184 0 5 4 11 8 13 13 5 82 104 82 117
0 6 4 11 8 11 5 0 16 15 25 33 10 17 31 55 48 82 70 112 184 350 225 470 l14
40 -21 -25 c-30 -36 -100 -119 -124 -147 -111 -130 -382 -398 -480 -475 -16
-12 -40 -33 -51 -45 -12 -13 -24 -23 -28 -23 -4 0 -17 -10 -30 -22 -36 -35
-65 -58 -74 -58 -4 0 -14 -9 -22 -20 -8 -11 -20 -20 -26 -20 -7 0 -14 -4 -16
-8 -6 -18 -370 -272 -388 -272 -5 0 -10 -4 -10 -10 0 -5 -6 -10 -13 -10 -8 0
-22 -9 -32 -20 -10 -11 -22 -20 -26 -20 -5 0 -34 -16 -65 -36 -46 -29 -58 -34
-65 -22 -11 19 -180 260 -193 275 -6 7 -15 18 -21 25 -125 163 -380 412 -564
550 -42 32 -80 62 -86 66 -10 8 -155 102 -207 135 -15 10 -29 16 -30 15 -2 -2
-16 7 -33 18 -45 32 -185 104 -201 104 -8 0 -14 4 -14 9 0 5 -8 11 -17 14 -10
3 -66 25 -124 50 -156 66 -349 129 -493 162 -75 17 -219 45 -256 49 -73 9
-122 15 -170 22 -61 8 -590 13 -590 5z"/>
</g>
</svg>
